<mxfile host="app.diagrams.net" agent="Mozilla/5.0 (Windows NT 10.0; Win64; x64) AppleWebKit/537.36 (KHTML, like Gecko) Chrome/139.0.0.0 Safari/537.36" version="28.1.0">
  <diagram id="R2lEEEUBdFMjLlhIrx00" name="Page-1">
    <mxGraphModel dx="3697" dy="2289" grid="1" gridSize="10" guides="1" tooltips="1" connect="1" arrows="1" fold="1" page="1" pageScale="1" pageWidth="850" pageHeight="1100" math="0" shadow="0" extFonts="Permanent Marker^https://fonts.googleapis.com/css?family=Permanent+Marker">
      <root>
        <mxCell id="0" />
        <mxCell id="1" parent="0" />
        <mxCell id="FEva6U0gb84JSitO10Zw-9" value="" style="group" parent="1" vertex="1" connectable="0">
          <mxGeometry x="280" y="-440" width="240" height="230" as="geometry" />
        </mxCell>
        <mxCell id="FEva6U0gb84JSitO10Zw-4" value="" style="whiteSpace=wrap;html=1;aspect=fixed;" parent="FEva6U0gb84JSitO10Zw-9" vertex="1">
          <mxGeometry width="230" height="230" as="geometry" />
        </mxCell>
        <mxCell id="FEva6U0gb84JSitO10Zw-5" value="" style="endArrow=none;html=1;rounded=0;exitX=0.161;exitY=0.998;exitDx=0;exitDy=0;exitPerimeter=0;" parent="FEva6U0gb84JSitO10Zw-9" source="FEva6U0gb84JSitO10Zw-4" edge="1">
          <mxGeometry width="50" height="50" relative="1" as="geometry">
            <mxPoint x="30" y="110" as="sourcePoint" />
            <mxPoint x="37" y="30" as="targetPoint" />
          </mxGeometry>
        </mxCell>
        <mxCell id="FEva6U0gb84JSitO10Zw-6" value="" style="endArrow=none;html=1;rounded=0;exitX=0.005;exitY=0.126;exitDx=0;exitDy=0;exitPerimeter=0;" parent="FEva6U0gb84JSitO10Zw-9" source="FEva6U0gb84JSitO10Zw-4" edge="1">
          <mxGeometry width="50" height="50" relative="1" as="geometry">
            <mxPoint x="100" y="210" as="sourcePoint" />
            <mxPoint x="230" y="30" as="targetPoint" />
          </mxGeometry>
        </mxCell>
        <mxCell id="FEva6U0gb84JSitO10Zw-7" value="" style="endArrow=none;html=1;rounded=0;exitX=0;exitY=0.25;exitDx=0;exitDy=0;entryX=1;entryY=0.25;entryDx=0;entryDy=0;" parent="FEva6U0gb84JSitO10Zw-9" source="FEva6U0gb84JSitO10Zw-4" target="FEva6U0gb84JSitO10Zw-4" edge="1">
          <mxGeometry width="50" height="50" relative="1" as="geometry">
            <mxPoint x="100" y="210" as="sourcePoint" />
            <mxPoint x="150" y="160" as="targetPoint" />
          </mxGeometry>
        </mxCell>
        <mxCell id="FEva6U0gb84JSitO10Zw-8" value="PK" style="text;html=1;align=center;verticalAlign=middle;whiteSpace=wrap;rounded=0;" parent="FEva6U0gb84JSitO10Zw-9" vertex="1">
          <mxGeometry x="4" y="30" width="30" height="30" as="geometry" />
        </mxCell>
        <mxCell id="FEva6U0gb84JSitO10Zw-77" value="Employee" style="text;html=1;align=center;verticalAlign=middle;whiteSpace=wrap;rounded=0;fontStyle=1" parent="FEva6U0gb84JSitO10Zw-9" vertex="1">
          <mxGeometry x="80" width="70" height="30" as="geometry" />
        </mxCell>
        <mxCell id="FEva6U0gb84JSitO10Zw-78" value="EmployeeID&amp;nbsp; &amp;nbsp; &amp;nbsp;integar(10)" style="text;html=1;align=center;verticalAlign=middle;whiteSpace=wrap;rounded=0;" parent="FEva6U0gb84JSitO10Zw-9" vertex="1">
          <mxGeometry x="40" y="30" width="160" height="30" as="geometry" />
        </mxCell>
        <mxCell id="FEva6U0gb84JSitO10Zw-79" value="EmployeeName&amp;nbsp; &amp;nbsp; &amp;nbsp; &amp;nbsp; &amp;nbsp; &amp;nbsp;varChar(25)" style="text;html=1;align=center;verticalAlign=middle;whiteSpace=wrap;rounded=0;" parent="FEva6U0gb84JSitO10Zw-9" vertex="1">
          <mxGeometry x="34" y="60" width="207.5" height="30" as="geometry" />
        </mxCell>
        <mxCell id="FEva6U0gb84JSitO10Zw-80" value="EmployeeSurname&amp;nbsp; &amp;nbsp; varChar(25)" style="text;html=1;align=center;verticalAlign=middle;whiteSpace=wrap;rounded=0;" parent="FEva6U0gb84JSitO10Zw-9" vertex="1">
          <mxGeometry x="45" y="80" width="184" height="30" as="geometry" />
        </mxCell>
        <mxCell id="FEva6U0gb84JSitO10Zw-81" value="PhoneNumber&amp;nbsp; &amp;nbsp; &amp;nbsp; &amp;nbsp;integar(10)" style="text;html=1;align=center;verticalAlign=middle;whiteSpace=wrap;rounded=0;" parent="FEva6U0gb84JSitO10Zw-9" vertex="1">
          <mxGeometry x="34" y="140" width="190" height="30" as="geometry" />
        </mxCell>
        <mxCell id="FEva6U0gb84JSitO10Zw-82" value="Position&amp;nbsp; &amp;nbsp; &amp;nbsp;varChar(25)" style="text;html=1;align=center;verticalAlign=middle;whiteSpace=wrap;rounded=0;" parent="FEva6U0gb84JSitO10Zw-9" vertex="1">
          <mxGeometry x="45" y="120" width="130" height="30" as="geometry" />
        </mxCell>
        <mxCell id="pkb78une9kSEhr9FNZn_-1" value="EmailAddress&amp;nbsp; &amp;nbsp; varChar(25)" style="text;html=1;align=center;verticalAlign=middle;whiteSpace=wrap;rounded=0;" vertex="1" parent="FEva6U0gb84JSitO10Zw-9">
          <mxGeometry x="34" y="100" width="184" height="30" as="geometry" />
        </mxCell>
        <mxCell id="FEva6U0gb84JSitO10Zw-16" value="" style="group" parent="1" vertex="1" connectable="0">
          <mxGeometry x="620" y="-300" width="230" height="232" as="geometry" />
        </mxCell>
        <mxCell id="FEva6U0gb84JSitO10Zw-17" value="" style="whiteSpace=wrap;html=1;aspect=fixed;" parent="FEva6U0gb84JSitO10Zw-16" vertex="1">
          <mxGeometry width="230" height="230" as="geometry" />
        </mxCell>
        <mxCell id="FEva6U0gb84JSitO10Zw-18" value="" style="endArrow=none;html=1;rounded=0;exitX=0.161;exitY=0.998;exitDx=0;exitDy=0;exitPerimeter=0;" parent="FEva6U0gb84JSitO10Zw-16" source="FEva6U0gb84JSitO10Zw-17" edge="1">
          <mxGeometry width="50" height="50" relative="1" as="geometry">
            <mxPoint x="30" y="110.95652173913044" as="sourcePoint" />
            <mxPoint x="37" y="30.26086956521739" as="targetPoint" />
          </mxGeometry>
        </mxCell>
        <mxCell id="FEva6U0gb84JSitO10Zw-19" value="" style="endArrow=none;html=1;rounded=0;exitX=0.005;exitY=0.126;exitDx=0;exitDy=0;exitPerimeter=0;" parent="FEva6U0gb84JSitO10Zw-16" source="FEva6U0gb84JSitO10Zw-17" edge="1">
          <mxGeometry width="50" height="50" relative="1" as="geometry">
            <mxPoint x="100" y="211.82608695652175" as="sourcePoint" />
            <mxPoint x="230" y="30.26086956521739" as="targetPoint" />
          </mxGeometry>
        </mxCell>
        <mxCell id="FEva6U0gb84JSitO10Zw-20" value="" style="endArrow=none;html=1;rounded=0;exitX=0;exitY=0.25;exitDx=0;exitDy=0;entryX=1;entryY=0.25;entryDx=0;entryDy=0;" parent="FEva6U0gb84JSitO10Zw-16" source="FEva6U0gb84JSitO10Zw-17" target="FEva6U0gb84JSitO10Zw-17" edge="1">
          <mxGeometry width="50" height="50" relative="1" as="geometry">
            <mxPoint x="100" y="211.82608695652175" as="sourcePoint" />
            <mxPoint x="150" y="161.39130434782606" as="targetPoint" />
          </mxGeometry>
        </mxCell>
        <mxCell id="FEva6U0gb84JSitO10Zw-21" value="PK" style="text;html=1;align=center;verticalAlign=middle;whiteSpace=wrap;rounded=0;" parent="FEva6U0gb84JSitO10Zw-16" vertex="1">
          <mxGeometry x="4" y="30.26086956521739" width="30" height="30.26086956521739" as="geometry" />
        </mxCell>
        <mxCell id="FEva6U0gb84JSitO10Zw-108" value="Orders" style="text;html=1;align=center;verticalAlign=middle;whiteSpace=wrap;rounded=0;" parent="FEva6U0gb84JSitO10Zw-16" vertex="1">
          <mxGeometry x="35" width="150" height="30.26086956521739" as="geometry" />
        </mxCell>
        <mxCell id="FEva6U0gb84JSitO10Zw-109" value="OrderID&amp;nbsp; &amp;nbsp; integar(10)" style="text;html=1;align=center;verticalAlign=middle;whiteSpace=wrap;rounded=0;" parent="FEva6U0gb84JSitO10Zw-16" vertex="1">
          <mxGeometry x="34" y="30.26086956521739" width="140" height="30.26086956521739" as="geometry" />
        </mxCell>
        <mxCell id="FEva6U0gb84JSitO10Zw-110" value="WarehouseID&amp;nbsp; &amp;nbsp; &amp;nbsp; &amp;nbsp; &amp;nbsp; integar(10)" style="text;html=1;align=center;verticalAlign=middle;whiteSpace=wrap;rounded=0;" parent="FEva6U0gb84JSitO10Zw-16" vertex="1">
          <mxGeometry x="44" y="60.52173913043478" width="176" height="30.26086956521739" as="geometry" />
        </mxCell>
        <mxCell id="FEva6U0gb84JSitO10Zw-111" value="FK" style="text;html=1;align=center;verticalAlign=middle;whiteSpace=wrap;rounded=0;" parent="FEva6U0gb84JSitO10Zw-16" vertex="1">
          <mxGeometry x="-11" y="60.52173913043478" width="60" height="30.26086956521739" as="geometry" />
        </mxCell>
        <mxCell id="FEva6U0gb84JSitO10Zw-112" value="OrderDate&amp;nbsp; &amp;nbsp; &amp;nbsp; &amp;nbsp; &amp;nbsp; DATE" style="text;html=1;align=center;verticalAlign=middle;whiteSpace=wrap;rounded=0;" parent="FEva6U0gb84JSitO10Zw-16" vertex="1">
          <mxGeometry x="17" y="141.2173913043478" width="181" height="30.26086956521739" as="geometry" />
        </mxCell>
        <mxCell id="FEva6U0gb84JSitO10Zw-113" value="ExpectedArrival&amp;nbsp; &amp;nbsp;DATE" style="text;html=1;align=center;verticalAlign=middle;whiteSpace=wrap;rounded=0;" parent="FEva6U0gb84JSitO10Zw-16" vertex="1">
          <mxGeometry x="20" y="161.39130434782606" width="180" height="30.26086956521739" as="geometry" />
        </mxCell>
        <mxCell id="FEva6U0gb84JSitO10Zw-114" value="DeliveryStatus&amp;nbsp; &amp;nbsp;varChar(10)" style="text;html=1;align=center;verticalAlign=middle;whiteSpace=wrap;rounded=0;" parent="FEva6U0gb84JSitO10Zw-16" vertex="1">
          <mxGeometry x="32" y="184" width="180" height="30.26086956521739" as="geometry" />
        </mxCell>
        <mxCell id="FEva6U0gb84JSitO10Zw-162" value="FK" style="text;html=1;align=center;verticalAlign=middle;whiteSpace=wrap;rounded=0;" parent="FEva6U0gb84JSitO10Zw-16" vertex="1">
          <mxGeometry x="-11" y="90.78260869565216" width="60" height="30.26086956521739" as="geometry" />
        </mxCell>
        <mxCell id="FEva6U0gb84JSitO10Zw-163" value="ManagerID&amp;nbsp; &amp;nbsp; integar(10)" style="text;html=1;align=center;verticalAlign=middle;whiteSpace=wrap;rounded=0;" parent="FEva6U0gb84JSitO10Zw-16" vertex="1">
          <mxGeometry x="40" y="91" width="150" height="30.26086956521739" as="geometry" />
        </mxCell>
        <mxCell id="H97FQpSwFBYFvqKq4Bfr-17" value="StockType&amp;nbsp; &amp;nbsp; &amp;nbsp; &amp;nbsp; varChar(25)" style="text;html=1;align=center;verticalAlign=middle;whiteSpace=wrap;rounded=0;" parent="FEva6U0gb84JSitO10Zw-16" vertex="1">
          <mxGeometry x="31" y="115" width="181" height="30.26086956521739" as="geometry" />
        </mxCell>
        <mxCell id="FEva6U0gb84JSitO10Zw-22" value="" style="group" parent="1" vertex="1" connectable="0">
          <mxGeometry x="230" y="-745" width="260" height="230" as="geometry" />
        </mxCell>
        <mxCell id="FEva6U0gb84JSitO10Zw-23" value="" style="whiteSpace=wrap;html=1;aspect=fixed;" parent="FEva6U0gb84JSitO10Zw-22" vertex="1">
          <mxGeometry width="230" height="230" as="geometry" />
        </mxCell>
        <mxCell id="FEva6U0gb84JSitO10Zw-24" value="" style="endArrow=none;html=1;rounded=0;exitX=0.161;exitY=0.998;exitDx=0;exitDy=0;exitPerimeter=0;" parent="FEva6U0gb84JSitO10Zw-22" source="FEva6U0gb84JSitO10Zw-23" edge="1">
          <mxGeometry width="50" height="50" relative="1" as="geometry">
            <mxPoint x="30" y="110" as="sourcePoint" />
            <mxPoint x="37" y="30" as="targetPoint" />
          </mxGeometry>
        </mxCell>
        <mxCell id="FEva6U0gb84JSitO10Zw-25" value="" style="endArrow=none;html=1;rounded=0;exitX=0.005;exitY=0.126;exitDx=0;exitDy=0;exitPerimeter=0;" parent="FEva6U0gb84JSitO10Zw-22" source="FEva6U0gb84JSitO10Zw-23" edge="1">
          <mxGeometry width="50" height="50" relative="1" as="geometry">
            <mxPoint x="100" y="210" as="sourcePoint" />
            <mxPoint x="230" y="30" as="targetPoint" />
          </mxGeometry>
        </mxCell>
        <mxCell id="FEva6U0gb84JSitO10Zw-26" value="" style="endArrow=none;html=1;rounded=0;exitX=0;exitY=0.25;exitDx=0;exitDy=0;entryX=1;entryY=0.25;entryDx=0;entryDy=0;" parent="FEva6U0gb84JSitO10Zw-22" source="FEva6U0gb84JSitO10Zw-23" target="FEva6U0gb84JSitO10Zw-23" edge="1">
          <mxGeometry width="50" height="50" relative="1" as="geometry">
            <mxPoint x="100" y="210" as="sourcePoint" />
            <mxPoint x="150" y="160" as="targetPoint" />
          </mxGeometry>
        </mxCell>
        <mxCell id="FEva6U0gb84JSitO10Zw-27" value="PK" style="text;html=1;align=center;verticalAlign=middle;whiteSpace=wrap;rounded=0;" parent="FEva6U0gb84JSitO10Zw-22" vertex="1">
          <mxGeometry x="4" y="30" width="30" height="30" as="geometry" />
        </mxCell>
        <mxCell id="FEva6U0gb84JSitO10Zw-70" value="Customer" style="text;html=1;align=center;verticalAlign=middle;whiteSpace=wrap;rounded=0;fontStyle=1" parent="FEva6U0gb84JSitO10Zw-22" vertex="1">
          <mxGeometry x="85" width="60" height="30" as="geometry" />
        </mxCell>
        <mxCell id="FEva6U0gb84JSitO10Zw-71" value="CustomerID&amp;nbsp; &amp;nbsp; &amp;nbsp; integar(10)" style="text;html=1;align=center;verticalAlign=middle;whiteSpace=wrap;rounded=0;" parent="FEva6U0gb84JSitO10Zw-22" vertex="1">
          <mxGeometry x="50" y="30" width="150" height="30" as="geometry" />
        </mxCell>
        <mxCell id="FEva6U0gb84JSitO10Zw-72" value="CustomerName&amp;nbsp; &amp;nbsp; &amp;nbsp; &amp;nbsp; &amp;nbsp; varChar(25)" style="text;html=1;align=center;verticalAlign=middle;whiteSpace=wrap;rounded=0;" parent="FEva6U0gb84JSitO10Zw-22" vertex="1">
          <mxGeometry x="36" y="60" width="210" height="30" as="geometry" />
        </mxCell>
        <mxCell id="FEva6U0gb84JSitO10Zw-74" value="Surname&amp;nbsp; &amp;nbsp; &amp;nbsp; &amp;nbsp; &amp;nbsp;varChar(25)" style="text;html=1;align=center;verticalAlign=middle;whiteSpace=wrap;rounded=0;" parent="FEva6U0gb84JSitO10Zw-22" vertex="1">
          <mxGeometry x="48" y="80" width="150" height="30" as="geometry" />
        </mxCell>
        <mxCell id="FEva6U0gb84JSitO10Zw-75" value="EmailAddress&amp;nbsp; &amp;nbsp; &amp;nbsp; &amp;nbsp; varChar(25)" style="text;html=1;align=center;verticalAlign=middle;whiteSpace=wrap;rounded=0;" parent="FEva6U0gb84JSitO10Zw-22" vertex="1">
          <mxGeometry x="42" y="100" width="184" height="30" as="geometry" />
        </mxCell>
        <mxCell id="FEva6U0gb84JSitO10Zw-76" value="PhoneNumber&amp;nbsp; &amp;nbsp; &amp;nbsp; &amp;nbsp;integar(10)" style="text;html=1;align=center;verticalAlign=middle;whiteSpace=wrap;rounded=0;" parent="FEva6U0gb84JSitO10Zw-22" vertex="1">
          <mxGeometry x="36" y="120" width="190" height="30" as="geometry" />
        </mxCell>
        <mxCell id="FEva6U0gb84JSitO10Zw-28" value="" style="group" parent="1" vertex="1" connectable="0">
          <mxGeometry x="-110" y="-420" width="230" height="230" as="geometry" />
        </mxCell>
        <mxCell id="FEva6U0gb84JSitO10Zw-29" value="" style="whiteSpace=wrap;html=1;aspect=fixed;" parent="FEva6U0gb84JSitO10Zw-28" vertex="1">
          <mxGeometry width="230" height="230" as="geometry" />
        </mxCell>
        <mxCell id="FEva6U0gb84JSitO10Zw-30" value="" style="endArrow=none;html=1;rounded=0;exitX=0.161;exitY=0.998;exitDx=0;exitDy=0;exitPerimeter=0;" parent="FEva6U0gb84JSitO10Zw-28" source="FEva6U0gb84JSitO10Zw-29" edge="1">
          <mxGeometry width="50" height="50" relative="1" as="geometry">
            <mxPoint x="30" y="110" as="sourcePoint" />
            <mxPoint x="37" y="30" as="targetPoint" />
          </mxGeometry>
        </mxCell>
        <mxCell id="FEva6U0gb84JSitO10Zw-31" value="" style="endArrow=none;html=1;rounded=0;exitX=0.005;exitY=0.126;exitDx=0;exitDy=0;exitPerimeter=0;" parent="FEva6U0gb84JSitO10Zw-28" source="FEva6U0gb84JSitO10Zw-29" edge="1">
          <mxGeometry width="50" height="50" relative="1" as="geometry">
            <mxPoint x="100" y="210" as="sourcePoint" />
            <mxPoint x="230" y="30" as="targetPoint" />
          </mxGeometry>
        </mxCell>
        <mxCell id="FEva6U0gb84JSitO10Zw-32" value="" style="endArrow=none;html=1;rounded=0;exitX=0;exitY=0.25;exitDx=0;exitDy=0;entryX=1;entryY=0.25;entryDx=0;entryDy=0;" parent="FEva6U0gb84JSitO10Zw-28" source="FEva6U0gb84JSitO10Zw-29" target="FEva6U0gb84JSitO10Zw-29" edge="1">
          <mxGeometry width="50" height="50" relative="1" as="geometry">
            <mxPoint x="100" y="210" as="sourcePoint" />
            <mxPoint x="150" y="160" as="targetPoint" />
          </mxGeometry>
        </mxCell>
        <mxCell id="FEva6U0gb84JSitO10Zw-33" value="PK" style="text;html=1;align=center;verticalAlign=middle;whiteSpace=wrap;rounded=0;" parent="FEva6U0gb84JSitO10Zw-28" vertex="1">
          <mxGeometry x="4" y="30" width="30" height="30" as="geometry" />
        </mxCell>
        <mxCell id="FEva6U0gb84JSitO10Zw-92" value="Employee Shift" style="text;html=1;align=center;verticalAlign=middle;whiteSpace=wrap;rounded=0;" parent="FEva6U0gb84JSitO10Zw-28" vertex="1">
          <mxGeometry x="55" width="130" height="30" as="geometry" />
        </mxCell>
        <mxCell id="FEva6U0gb84JSitO10Zw-93" value="ShiftID&amp;nbsp; &amp;nbsp; &amp;nbsp; &amp;nbsp;integar(10)" style="text;html=1;align=center;verticalAlign=middle;whiteSpace=wrap;rounded=0;" parent="FEva6U0gb84JSitO10Zw-28" vertex="1">
          <mxGeometry x="25" y="30" width="156" height="30" as="geometry" />
        </mxCell>
        <mxCell id="FEva6U0gb84JSitO10Zw-94" value="EmployeeID&amp;nbsp; &amp;nbsp; &amp;nbsp;integar(10)" style="text;html=1;align=center;verticalAlign=middle;whiteSpace=wrap;rounded=0;" parent="FEva6U0gb84JSitO10Zw-28" vertex="1">
          <mxGeometry x="40" y="60" width="160" height="30" as="geometry" />
        </mxCell>
        <mxCell id="FEva6U0gb84JSitO10Zw-98" value="FK" style="text;html=1;align=center;verticalAlign=middle;whiteSpace=wrap;rounded=0;" parent="FEva6U0gb84JSitO10Zw-28" vertex="1">
          <mxGeometry x="-11" y="60" width="60" height="30" as="geometry" />
        </mxCell>
        <mxCell id="FEva6U0gb84JSitO10Zw-99" value="ShiftDate&amp;nbsp; &amp;nbsp;DATE" style="text;html=1;align=center;verticalAlign=middle;whiteSpace=wrap;rounded=0;" parent="FEva6U0gb84JSitO10Zw-28" vertex="1">
          <mxGeometry x="15" y="80" width="160" height="30" as="geometry" />
        </mxCell>
        <mxCell id="FEva6U0gb84JSitO10Zw-100" value="StartTime&amp;nbsp; &amp;nbsp;TIME" style="text;html=1;align=center;verticalAlign=middle;whiteSpace=wrap;rounded=0;" parent="FEva6U0gb84JSitO10Zw-28" vertex="1">
          <mxGeometry x="32.5" y="100" width="125" height="30" as="geometry" />
        </mxCell>
        <mxCell id="FEva6U0gb84JSitO10Zw-101" value="EndTime&amp;nbsp; &amp;nbsp; TIME" style="text;html=1;align=center;verticalAlign=middle;whiteSpace=wrap;rounded=0;" parent="FEva6U0gb84JSitO10Zw-28" vertex="1">
          <mxGeometry x="10" y="120" width="170" height="30" as="geometry" />
        </mxCell>
        <mxCell id="pkb78une9kSEhr9FNZn_-2" value="Department&lt;span style=&quot;white-space: pre;&quot;&gt;&#x9;&lt;/span&gt;VARCHAR(25)" style="text;html=1;align=center;verticalAlign=middle;whiteSpace=wrap;rounded=0;" vertex="1" parent="FEva6U0gb84JSitO10Zw-28">
          <mxGeometry x="40" y="140" width="170" height="30" as="geometry" />
        </mxCell>
        <mxCell id="FEva6U0gb84JSitO10Zw-34" value="" style="group" parent="1" vertex="1" connectable="0">
          <mxGeometry x="20" y="490" width="230" height="230" as="geometry" />
        </mxCell>
        <mxCell id="FEva6U0gb84JSitO10Zw-35" value="" style="whiteSpace=wrap;html=1;aspect=fixed;" parent="FEva6U0gb84JSitO10Zw-34" vertex="1">
          <mxGeometry width="230" height="230" as="geometry" />
        </mxCell>
        <mxCell id="FEva6U0gb84JSitO10Zw-36" value="" style="endArrow=none;html=1;rounded=0;exitX=0.161;exitY=0.998;exitDx=0;exitDy=0;exitPerimeter=0;" parent="FEva6U0gb84JSitO10Zw-34" source="FEva6U0gb84JSitO10Zw-35" edge="1">
          <mxGeometry width="50" height="50" relative="1" as="geometry">
            <mxPoint x="30" y="110" as="sourcePoint" />
            <mxPoint x="37" y="30" as="targetPoint" />
          </mxGeometry>
        </mxCell>
        <mxCell id="FEva6U0gb84JSitO10Zw-37" value="" style="endArrow=none;html=1;rounded=0;exitX=0.005;exitY=0.126;exitDx=0;exitDy=0;exitPerimeter=0;" parent="FEva6U0gb84JSitO10Zw-34" source="FEva6U0gb84JSitO10Zw-35" edge="1">
          <mxGeometry width="50" height="50" relative="1" as="geometry">
            <mxPoint x="100" y="210" as="sourcePoint" />
            <mxPoint x="230" y="30" as="targetPoint" />
          </mxGeometry>
        </mxCell>
        <mxCell id="FEva6U0gb84JSitO10Zw-38" value="" style="endArrow=none;html=1;rounded=0;exitX=0;exitY=0.25;exitDx=0;exitDy=0;entryX=1;entryY=0.25;entryDx=0;entryDy=0;" parent="FEva6U0gb84JSitO10Zw-34" source="FEva6U0gb84JSitO10Zw-35" target="FEva6U0gb84JSitO10Zw-35" edge="1">
          <mxGeometry width="50" height="50" relative="1" as="geometry">
            <mxPoint x="100" y="210" as="sourcePoint" />
            <mxPoint x="150" y="160" as="targetPoint" />
          </mxGeometry>
        </mxCell>
        <mxCell id="FEva6U0gb84JSitO10Zw-39" value="PK" style="text;html=1;align=center;verticalAlign=middle;whiteSpace=wrap;rounded=0;" parent="FEva6U0gb84JSitO10Zw-34" vertex="1">
          <mxGeometry x="4" y="30" width="30" height="30" as="geometry" />
        </mxCell>
        <mxCell id="FEva6U0gb84JSitO10Zw-133" value="Clothing Stock" style="text;html=1;align=center;verticalAlign=middle;whiteSpace=wrap;rounded=0;fontStyle=1" parent="FEva6U0gb84JSitO10Zw-34" vertex="1">
          <mxGeometry x="65" width="100" height="30" as="geometry" />
        </mxCell>
        <mxCell id="FEva6U0gb84JSitO10Zw-134" value="ClothingID&amp;nbsp; &amp;nbsp;varChar(25)" style="text;html=1;align=center;verticalAlign=middle;whiteSpace=wrap;rounded=0;" parent="FEva6U0gb84JSitO10Zw-34" vertex="1">
          <mxGeometry x="34" y="30" width="160" height="30" as="geometry" />
        </mxCell>
        <mxCell id="FEva6U0gb84JSitO10Zw-135" value="ClothingName&amp;nbsp; &amp;nbsp; &amp;nbsp; &amp;nbsp; varChar(25)" style="text;html=1;align=center;verticalAlign=middle;whiteSpace=wrap;rounded=0;" parent="FEva6U0gb84JSitO10Zw-34" vertex="1">
          <mxGeometry x="44" y="60" width="176" height="30" as="geometry" />
        </mxCell>
        <mxCell id="FEva6U0gb84JSitO10Zw-136" value="Size&amp;nbsp; &amp;nbsp; &amp;nbsp; &amp;nbsp; &amp;nbsp; &amp;nbsp;varChar(2()" style="text;html=1;align=center;verticalAlign=middle;whiteSpace=wrap;rounded=0;" parent="FEva6U0gb84JSitO10Zw-34" vertex="1">
          <mxGeometry x="44" y="80" width="130" height="30" as="geometry" />
        </mxCell>
        <mxCell id="FEva6U0gb84JSitO10Zw-137" value="Colour&amp;nbsp; &amp;nbsp; &amp;nbsp; &amp;nbsp;varChar(7)" style="text;html=1;align=center;verticalAlign=middle;whiteSpace=wrap;rounded=0;" parent="FEva6U0gb84JSitO10Zw-34" vertex="1">
          <mxGeometry x="41" y="100" width="130" height="30" as="geometry" />
        </mxCell>
        <mxCell id="FEva6U0gb84JSitO10Zw-138" value="Quantity&amp;nbsp; &amp;nbsp; integer" style="text;html=1;align=center;verticalAlign=middle;whiteSpace=wrap;rounded=0;" parent="FEva6U0gb84JSitO10Zw-34" vertex="1">
          <mxGeometry x="30" y="120" width="130" height="30" as="geometry" />
        </mxCell>
        <mxCell id="FEva6U0gb84JSitO10Zw-139" value="Price&amp;nbsp; &amp;nbsp; &amp;nbsp; &amp;nbsp; &amp;nbsp; DECIMALS(8,2)" style="text;html=1;align=center;verticalAlign=middle;whiteSpace=wrap;rounded=0;" parent="FEva6U0gb84JSitO10Zw-34" vertex="1">
          <mxGeometry x="37" y="140" width="170" height="30" as="geometry" />
        </mxCell>
        <mxCell id="FEva6U0gb84JSitO10Zw-140" value="ProductID&amp;nbsp; &amp;nbsp;integar(10)" style="text;html=1;align=center;verticalAlign=middle;whiteSpace=wrap;rounded=0;" parent="FEva6U0gb84JSitO10Zw-34" vertex="1">
          <mxGeometry x="45" y="160" width="130" height="30" as="geometry" />
        </mxCell>
        <mxCell id="FEva6U0gb84JSitO10Zw-141" value="FK" style="text;html=1;align=center;verticalAlign=middle;whiteSpace=wrap;rounded=0;" parent="FEva6U0gb84JSitO10Zw-34" vertex="1">
          <mxGeometry x="-11" y="160" width="60" height="30" as="geometry" />
        </mxCell>
        <mxCell id="FEva6U0gb84JSitO10Zw-40" value="" style="group;fontStyle=1" parent="1" vertex="1" connectable="0">
          <mxGeometry x="570" y="-760" width="240" height="230" as="geometry" />
        </mxCell>
        <mxCell id="FEva6U0gb84JSitO10Zw-41" value="" style="whiteSpace=wrap;html=1;aspect=fixed;" parent="FEva6U0gb84JSitO10Zw-40" vertex="1">
          <mxGeometry width="230" height="230" as="geometry" />
        </mxCell>
        <mxCell id="FEva6U0gb84JSitO10Zw-42" value="" style="endArrow=none;html=1;rounded=0;exitX=0.161;exitY=0.998;exitDx=0;exitDy=0;exitPerimeter=0;" parent="FEva6U0gb84JSitO10Zw-40" source="FEva6U0gb84JSitO10Zw-41" edge="1">
          <mxGeometry width="50" height="50" relative="1" as="geometry">
            <mxPoint x="30" y="110" as="sourcePoint" />
            <mxPoint x="37" y="30" as="targetPoint" />
          </mxGeometry>
        </mxCell>
        <mxCell id="FEva6U0gb84JSitO10Zw-43" value="" style="endArrow=none;html=1;rounded=0;exitX=0.005;exitY=0.126;exitDx=0;exitDy=0;exitPerimeter=0;" parent="FEva6U0gb84JSitO10Zw-40" source="FEva6U0gb84JSitO10Zw-41" edge="1">
          <mxGeometry width="50" height="50" relative="1" as="geometry">
            <mxPoint x="100" y="210" as="sourcePoint" />
            <mxPoint x="230" y="30" as="targetPoint" />
          </mxGeometry>
        </mxCell>
        <mxCell id="FEva6U0gb84JSitO10Zw-44" value="" style="endArrow=none;html=1;rounded=0;exitX=0;exitY=0.25;exitDx=0;exitDy=0;entryX=1;entryY=0.25;entryDx=0;entryDy=0;" parent="FEva6U0gb84JSitO10Zw-40" source="FEva6U0gb84JSitO10Zw-41" target="FEva6U0gb84JSitO10Zw-41" edge="1">
          <mxGeometry width="50" height="50" relative="1" as="geometry">
            <mxPoint x="100" y="210" as="sourcePoint" />
            <mxPoint x="150" y="160" as="targetPoint" />
          </mxGeometry>
        </mxCell>
        <mxCell id="FEva6U0gb84JSitO10Zw-45" value="PK" style="text;html=1;align=center;verticalAlign=middle;whiteSpace=wrap;rounded=0;" parent="FEva6U0gb84JSitO10Zw-40" vertex="1">
          <mxGeometry x="4" y="30" width="30" height="30" as="geometry" />
        </mxCell>
        <mxCell id="FEva6U0gb84JSitO10Zw-115" value="SalesTransaction" style="text;html=1;align=center;verticalAlign=middle;whiteSpace=wrap;rounded=0;fontStyle=1" parent="FEva6U0gb84JSitO10Zw-40" vertex="1">
          <mxGeometry x="85" width="60" height="30" as="geometry" />
        </mxCell>
        <mxCell id="FEva6U0gb84JSitO10Zw-117" value="SaleID&amp;nbsp; &amp;nbsp;integar(10)" style="text;html=1;align=center;verticalAlign=middle;whiteSpace=wrap;rounded=0;" parent="FEva6U0gb84JSitO10Zw-40" vertex="1">
          <mxGeometry x="30" y="30" width="190" height="30" as="geometry" />
        </mxCell>
        <mxCell id="FEva6U0gb84JSitO10Zw-118" value="CustomerID&amp;nbsp; &amp;nbsp; &amp;nbsp; integar(10)" style="text;html=1;align=center;verticalAlign=middle;whiteSpace=wrap;rounded=0;" parent="FEva6U0gb84JSitO10Zw-40" vertex="1">
          <mxGeometry x="50" y="60" width="150" height="30" as="geometry" />
        </mxCell>
        <mxCell id="FEva6U0gb84JSitO10Zw-119" value="EmployeeID&amp;nbsp; &amp;nbsp; &amp;nbsp;integar(10)" style="text;html=1;align=center;verticalAlign=middle;whiteSpace=wrap;rounded=0;" parent="FEva6U0gb84JSitO10Zw-40" vertex="1">
          <mxGeometry x="45" y="80" width="160" height="30" as="geometry" />
        </mxCell>
        <mxCell id="FEva6U0gb84JSitO10Zw-120" value="FK" style="text;html=1;align=center;verticalAlign=middle;whiteSpace=wrap;rounded=0;" parent="FEva6U0gb84JSitO10Zw-40" vertex="1">
          <mxGeometry x="-11" y="60" width="60" height="30" as="geometry" />
        </mxCell>
        <mxCell id="FEva6U0gb84JSitO10Zw-121" value="FK" style="text;html=1;align=center;verticalAlign=middle;whiteSpace=wrap;rounded=0;" parent="FEva6U0gb84JSitO10Zw-40" vertex="1">
          <mxGeometry x="-11" y="80" width="60" height="30" as="geometry" />
        </mxCell>
        <mxCell id="FEva6U0gb84JSitO10Zw-123" value="TotalAmount&amp;nbsp; &amp;nbsp; &amp;nbsp; DECIMAL(10,2)" style="text;html=1;align=center;verticalAlign=middle;whiteSpace=wrap;rounded=0;" parent="FEva6U0gb84JSitO10Zw-40" vertex="1">
          <mxGeometry x="45" y="160" width="190" height="30" as="geometry" />
        </mxCell>
        <mxCell id="FEva6U0gb84JSitO10Zw-124" value="PaymentMethod&amp;nbsp; &amp;nbsp;varChar(25)" style="text;html=1;align=center;verticalAlign=middle;whiteSpace=wrap;rounded=0;" parent="FEva6U0gb84JSitO10Zw-40" vertex="1">
          <mxGeometry x="30" y="180" width="210" height="30" as="geometry" />
        </mxCell>
        <mxCell id="pkb78une9kSEhr9FNZn_-9" value="ProductID&lt;span style=&quot;white-space: pre;&quot;&gt;&#x9;&lt;/span&gt;integer(10)" style="text;html=1;align=center;verticalAlign=middle;whiteSpace=wrap;rounded=0;" vertex="1" parent="FEva6U0gb84JSitO10Zw-40">
          <mxGeometry x="34" y="100" width="180" height="30" as="geometry" />
        </mxCell>
        <mxCell id="pkb78une9kSEhr9FNZn_-10" value="FK" style="text;html=1;align=center;verticalAlign=middle;whiteSpace=wrap;rounded=0;" vertex="1" parent="FEva6U0gb84JSitO10Zw-40">
          <mxGeometry x="-10" y="100" width="60" height="30" as="geometry" />
        </mxCell>
        <mxCell id="pkb78une9kSEhr9FNZn_-11" value="QuantitySold&lt;span style=&quot;white-space: pre;&quot;&gt;&#x9;&lt;/span&gt;&amp;nbsp; &amp;nbsp;&amp;nbsp; &amp;nbsp;varChar(25)" style="text;html=1;align=center;verticalAlign=middle;whiteSpace=wrap;rounded=0;" vertex="1" parent="FEva6U0gb84JSitO10Zw-40">
          <mxGeometry x="30" y="120" width="210" height="30" as="geometry" />
        </mxCell>
        <mxCell id="FEva6U0gb84JSitO10Zw-122" value="SaleDate&amp;nbsp; &amp;nbsp;&lt;span style=&quot;white-space: pre;&quot;&gt;&#x9;&lt;/span&gt;&lt;span style=&quot;white-space: pre;&quot;&gt;&#x9;&lt;/span&gt; DATE" style="text;html=1;align=center;verticalAlign=middle;whiteSpace=wrap;rounded=0;" parent="FEva6U0gb84JSitO10Zw-40" vertex="1">
          <mxGeometry x="35" y="140" width="180" height="30" as="geometry" />
        </mxCell>
        <mxCell id="FEva6U0gb84JSitO10Zw-46" value="" style="group" parent="1" vertex="1" connectable="0">
          <mxGeometry x="370" y="435" width="230" height="230" as="geometry" />
        </mxCell>
        <mxCell id="FEva6U0gb84JSitO10Zw-47" value="" style="whiteSpace=wrap;html=1;aspect=fixed;" parent="FEva6U0gb84JSitO10Zw-46" vertex="1">
          <mxGeometry width="230" height="230" as="geometry" />
        </mxCell>
        <mxCell id="FEva6U0gb84JSitO10Zw-48" value="" style="endArrow=none;html=1;rounded=0;exitX=0.161;exitY=0.998;exitDx=0;exitDy=0;exitPerimeter=0;" parent="FEva6U0gb84JSitO10Zw-46" source="FEva6U0gb84JSitO10Zw-47" edge="1">
          <mxGeometry width="50" height="50" relative="1" as="geometry">
            <mxPoint x="30" y="110" as="sourcePoint" />
            <mxPoint x="37" y="30" as="targetPoint" />
          </mxGeometry>
        </mxCell>
        <mxCell id="FEva6U0gb84JSitO10Zw-49" value="" style="endArrow=none;html=1;rounded=0;exitX=0.005;exitY=0.126;exitDx=0;exitDy=0;exitPerimeter=0;" parent="FEva6U0gb84JSitO10Zw-46" source="FEva6U0gb84JSitO10Zw-47" edge="1">
          <mxGeometry width="50" height="50" relative="1" as="geometry">
            <mxPoint x="100" y="210" as="sourcePoint" />
            <mxPoint x="230" y="30" as="targetPoint" />
          </mxGeometry>
        </mxCell>
        <mxCell id="FEva6U0gb84JSitO10Zw-50" value="" style="endArrow=none;html=1;rounded=0;exitX=0;exitY=0.25;exitDx=0;exitDy=0;entryX=1;entryY=0.25;entryDx=0;entryDy=0;" parent="FEva6U0gb84JSitO10Zw-46" source="FEva6U0gb84JSitO10Zw-47" target="FEva6U0gb84JSitO10Zw-47" edge="1">
          <mxGeometry width="50" height="50" relative="1" as="geometry">
            <mxPoint x="100" y="210" as="sourcePoint" />
            <mxPoint x="150" y="160" as="targetPoint" />
          </mxGeometry>
        </mxCell>
        <mxCell id="FEva6U0gb84JSitO10Zw-51" value="PK" style="text;html=1;align=center;verticalAlign=middle;whiteSpace=wrap;rounded=0;" parent="FEva6U0gb84JSitO10Zw-46" vertex="1">
          <mxGeometry x="4" y="30" width="30" height="30" as="geometry" />
        </mxCell>
        <mxCell id="FEva6U0gb84JSitO10Zw-125" value="Food Stock" style="text;html=1;align=center;verticalAlign=middle;whiteSpace=wrap;rounded=0;fontStyle=1" parent="FEva6U0gb84JSitO10Zw-46" vertex="1">
          <mxGeometry x="50" width="130" height="30" as="geometry" />
        </mxCell>
        <mxCell id="FEva6U0gb84JSitO10Zw-126" value="FoodID&amp;nbsp; &amp;nbsp; &amp;nbsp; integar(10)" style="text;html=1;align=center;verticalAlign=middle;whiteSpace=wrap;rounded=0;" parent="FEva6U0gb84JSitO10Zw-46" vertex="1">
          <mxGeometry x="30" y="30" width="150" height="30" as="geometry" />
        </mxCell>
        <mxCell id="FEva6U0gb84JSitO10Zw-127" value="FoodName&amp;nbsp; &amp;nbsp; &amp;nbsp; &amp;nbsp; varChar(25)" style="text;html=1;align=center;verticalAlign=middle;whiteSpace=wrap;rounded=0;" parent="FEva6U0gb84JSitO10Zw-46" vertex="1">
          <mxGeometry x="36" y="60" width="166" height="30" as="geometry" />
        </mxCell>
        <mxCell id="FEva6U0gb84JSitO10Zw-128" value="Quantity&amp;nbsp; &amp;nbsp; &amp;nbsp; integer" style="text;html=1;align=center;verticalAlign=middle;whiteSpace=wrap;rounded=0;" parent="FEva6U0gb84JSitO10Zw-46" vertex="1">
          <mxGeometry x="27" y="80" width="140" height="30" as="geometry" />
        </mxCell>
        <mxCell id="FEva6U0gb84JSitO10Zw-129" value="Price&amp;nbsp; &amp;nbsp; &amp;nbsp; &amp;nbsp; &amp;nbsp; DECIMAL(8,2)" style="text;html=1;align=center;verticalAlign=middle;whiteSpace=wrap;rounded=0;" parent="FEva6U0gb84JSitO10Zw-46" vertex="1">
          <mxGeometry x="32" y="100" width="170" height="30" as="geometry" />
        </mxCell>
        <mxCell id="FEva6U0gb84JSitO10Zw-130" value="ProductD&amp;nbsp; &amp;nbsp;integar(10)" style="text;html=1;align=center;verticalAlign=middle;whiteSpace=wrap;rounded=0;" parent="FEva6U0gb84JSitO10Zw-46" vertex="1">
          <mxGeometry x="44" y="120" width="130" height="30" as="geometry" />
        </mxCell>
        <mxCell id="FEva6U0gb84JSitO10Zw-131" value="FK" style="text;html=1;align=center;verticalAlign=middle;whiteSpace=wrap;rounded=0;" parent="FEva6U0gb84JSitO10Zw-46" vertex="1">
          <mxGeometry x="-10" y="120" width="60" height="30" as="geometry" />
        </mxCell>
        <mxCell id="FEva6U0gb84JSitO10Zw-132" value="SellBy&amp;nbsp; &amp;nbsp; &amp;nbsp; &amp;nbsp; DATE" style="text;html=1;align=center;verticalAlign=middle;whiteSpace=wrap;rounded=0;" parent="FEva6U0gb84JSitO10Zw-46" vertex="1">
          <mxGeometry x="34" y="140" width="120" height="30" as="geometry" />
        </mxCell>
        <mxCell id="FEva6U0gb84JSitO10Zw-52" value="" style="group" parent="1" vertex="1" connectable="0">
          <mxGeometry x="-360" y="370" width="230" height="230" as="geometry" />
        </mxCell>
        <mxCell id="FEva6U0gb84JSitO10Zw-53" value="" style="whiteSpace=wrap;html=1;aspect=fixed;" parent="FEva6U0gb84JSitO10Zw-52" vertex="1">
          <mxGeometry width="230" height="230" as="geometry" />
        </mxCell>
        <mxCell id="FEva6U0gb84JSitO10Zw-54" value="" style="endArrow=none;html=1;rounded=0;exitX=0.161;exitY=0.998;exitDx=0;exitDy=0;exitPerimeter=0;" parent="FEva6U0gb84JSitO10Zw-52" source="FEva6U0gb84JSitO10Zw-53" edge="1">
          <mxGeometry width="50" height="50" relative="1" as="geometry">
            <mxPoint x="30" y="110" as="sourcePoint" />
            <mxPoint x="37" y="30" as="targetPoint" />
          </mxGeometry>
        </mxCell>
        <mxCell id="FEva6U0gb84JSitO10Zw-55" value="" style="endArrow=none;html=1;rounded=0;exitX=0.005;exitY=0.126;exitDx=0;exitDy=0;exitPerimeter=0;" parent="FEva6U0gb84JSitO10Zw-52" source="FEva6U0gb84JSitO10Zw-53" edge="1">
          <mxGeometry width="50" height="50" relative="1" as="geometry">
            <mxPoint x="100" y="210" as="sourcePoint" />
            <mxPoint x="230" y="30" as="targetPoint" />
          </mxGeometry>
        </mxCell>
        <mxCell id="FEva6U0gb84JSitO10Zw-56" value="" style="endArrow=none;html=1;rounded=0;exitX=0;exitY=0.25;exitDx=0;exitDy=0;entryX=1;entryY=0.25;entryDx=0;entryDy=0;" parent="FEva6U0gb84JSitO10Zw-52" source="FEva6U0gb84JSitO10Zw-53" target="FEva6U0gb84JSitO10Zw-53" edge="1">
          <mxGeometry width="50" height="50" relative="1" as="geometry">
            <mxPoint x="100" y="210" as="sourcePoint" />
            <mxPoint x="150" y="160" as="targetPoint" />
          </mxGeometry>
        </mxCell>
        <mxCell id="FEva6U0gb84JSitO10Zw-57" value="PK" style="text;html=1;align=center;verticalAlign=middle;whiteSpace=wrap;rounded=0;" parent="FEva6U0gb84JSitO10Zw-52" vertex="1">
          <mxGeometry x="4" y="30" width="30" height="30" as="geometry" />
        </mxCell>
        <mxCell id="FEva6U0gb84JSitO10Zw-142" value="Home Decoration Stock" style="text;html=1;align=center;verticalAlign=middle;whiteSpace=wrap;rounded=0;" parent="FEva6U0gb84JSitO10Zw-52" vertex="1">
          <mxGeometry x="35" width="160" height="30" as="geometry" />
        </mxCell>
        <mxCell id="FEva6U0gb84JSitO10Zw-143" value="DecorID&amp;nbsp; &amp;nbsp; &amp;nbsp;integer(10)" style="text;html=1;align=center;verticalAlign=middle;whiteSpace=wrap;rounded=0;" parent="FEva6U0gb84JSitO10Zw-52" vertex="1">
          <mxGeometry x="35" y="30" width="140" height="30" as="geometry" />
        </mxCell>
        <mxCell id="FEva6U0gb84JSitO10Zw-144" value="DecorName&amp;nbsp; &amp;nbsp; &amp;nbsp; &amp;nbsp; varChar(25)" style="text;html=1;align=center;verticalAlign=middle;whiteSpace=wrap;rounded=0;" parent="FEva6U0gb84JSitO10Zw-52" vertex="1">
          <mxGeometry x="34" y="60" width="170" height="30" as="geometry" />
        </mxCell>
        <mxCell id="FEva6U0gb84JSitO10Zw-145" value="Material&amp;nbsp; &amp;nbsp; &amp;nbsp;varChar(50)" style="text;html=1;align=center;verticalAlign=middle;whiteSpace=wrap;rounded=0;" parent="FEva6U0gb84JSitO10Zw-52" vertex="1">
          <mxGeometry x="30" y="80" width="150" height="30" as="geometry" />
        </mxCell>
        <mxCell id="FEva6U0gb84JSitO10Zw-146" value="Quantity&amp;nbsp; &amp;nbsp; &amp;nbsp; &amp;nbsp; &amp;nbsp; integer" style="text;html=1;align=center;verticalAlign=middle;whiteSpace=wrap;rounded=0;" parent="FEva6U0gb84JSitO10Zw-52" vertex="1">
          <mxGeometry x="25" y="100" width="150" height="30" as="geometry" />
        </mxCell>
        <mxCell id="FEva6U0gb84JSitO10Zw-148" value="Price&amp;nbsp; &amp;nbsp; &amp;nbsp; &amp;nbsp; &amp;nbsp; DECIMALS(8,2)" style="text;html=1;align=center;verticalAlign=middle;whiteSpace=wrap;rounded=0;" parent="FEva6U0gb84JSitO10Zw-52" vertex="1">
          <mxGeometry x="32" y="120" width="170" height="30" as="geometry" />
        </mxCell>
        <mxCell id="FEva6U0gb84JSitO10Zw-152" value="FK" style="text;html=1;align=center;verticalAlign=middle;whiteSpace=wrap;rounded=0;" parent="FEva6U0gb84JSitO10Zw-52" vertex="1">
          <mxGeometry x="-11" y="140" width="60" height="30" as="geometry" />
        </mxCell>
        <mxCell id="pkb78une9kSEhr9FNZn_-5" value="ProductID&amp;nbsp; &amp;nbsp;integar(10)" style="text;html=1;align=center;verticalAlign=middle;whiteSpace=wrap;rounded=0;" vertex="1" parent="FEva6U0gb84JSitO10Zw-52">
          <mxGeometry x="40" y="140" width="130" height="30" as="geometry" />
        </mxCell>
        <mxCell id="FEva6U0gb84JSitO10Zw-58" value="" style="group" parent="1" vertex="1" connectable="0">
          <mxGeometry x="630" y="-10" width="230" height="230" as="geometry" />
        </mxCell>
        <mxCell id="FEva6U0gb84JSitO10Zw-59" value="" style="whiteSpace=wrap;html=1;aspect=fixed;" parent="FEva6U0gb84JSitO10Zw-58" vertex="1">
          <mxGeometry width="230" height="230" as="geometry" />
        </mxCell>
        <mxCell id="FEva6U0gb84JSitO10Zw-60" value="" style="endArrow=none;html=1;rounded=0;exitX=0.161;exitY=0.998;exitDx=0;exitDy=0;exitPerimeter=0;" parent="FEva6U0gb84JSitO10Zw-58" source="FEva6U0gb84JSitO10Zw-59" edge="1">
          <mxGeometry width="50" height="50" relative="1" as="geometry">
            <mxPoint x="30" y="110" as="sourcePoint" />
            <mxPoint x="37" y="30" as="targetPoint" />
          </mxGeometry>
        </mxCell>
        <mxCell id="FEva6U0gb84JSitO10Zw-61" value="" style="endArrow=none;html=1;rounded=0;exitX=0.005;exitY=0.126;exitDx=0;exitDy=0;exitPerimeter=0;" parent="FEva6U0gb84JSitO10Zw-58" source="FEva6U0gb84JSitO10Zw-59" edge="1">
          <mxGeometry width="50" height="50" relative="1" as="geometry">
            <mxPoint x="100" y="210" as="sourcePoint" />
            <mxPoint x="230" y="30" as="targetPoint" />
          </mxGeometry>
        </mxCell>
        <mxCell id="FEva6U0gb84JSitO10Zw-62" value="" style="endArrow=none;html=1;rounded=0;exitX=0;exitY=0.25;exitDx=0;exitDy=0;entryX=1;entryY=0.25;entryDx=0;entryDy=0;" parent="FEva6U0gb84JSitO10Zw-58" source="FEva6U0gb84JSitO10Zw-59" target="FEva6U0gb84JSitO10Zw-59" edge="1">
          <mxGeometry width="50" height="50" relative="1" as="geometry">
            <mxPoint x="100" y="210" as="sourcePoint" />
            <mxPoint x="150" y="160" as="targetPoint" />
          </mxGeometry>
        </mxCell>
        <mxCell id="FEva6U0gb84JSitO10Zw-63" value="PK" style="text;html=1;align=center;verticalAlign=middle;whiteSpace=wrap;rounded=0;" parent="FEva6U0gb84JSitO10Zw-58" vertex="1">
          <mxGeometry x="4" y="30" width="30" height="30" as="geometry" />
        </mxCell>
        <mxCell id="FEva6U0gb84JSitO10Zw-102" value="Warehouse" style="text;html=1;align=center;verticalAlign=middle;whiteSpace=wrap;rounded=0;fontStyle=1" parent="FEva6U0gb84JSitO10Zw-58" vertex="1">
          <mxGeometry x="85" width="60" height="30" as="geometry" />
        </mxCell>
        <mxCell id="FEva6U0gb84JSitO10Zw-103" value="WarehouseID&amp;nbsp; &amp;nbsp;integar(10)" style="text;html=1;align=center;verticalAlign=middle;whiteSpace=wrap;rounded=0;" parent="FEva6U0gb84JSitO10Zw-58" vertex="1">
          <mxGeometry x="40" y="30" width="150" height="30" as="geometry" />
        </mxCell>
        <mxCell id="FEva6U0gb84JSitO10Zw-104" value="Name&amp;nbsp; &amp;nbsp; &amp;nbsp; &amp;nbsp; &amp;nbsp; &amp;nbsp; &amp;nbsp; &amp;nbsp; varChar(25)" style="text;html=1;align=center;verticalAlign=middle;whiteSpace=wrap;rounded=0;" parent="FEva6U0gb84JSitO10Zw-58" vertex="1">
          <mxGeometry x="40" y="60" width="160" height="30" as="geometry" />
        </mxCell>
        <mxCell id="FEva6U0gb84JSitO10Zw-105" value="PhoneNumber&amp;nbsp; &amp;nbsp; &amp;nbsp; &amp;nbsp;integar(10)" style="text;html=1;align=center;verticalAlign=middle;whiteSpace=wrap;rounded=0;" parent="FEva6U0gb84JSitO10Zw-58" vertex="1">
          <mxGeometry x="27" y="100" width="190" height="30" as="geometry" />
        </mxCell>
        <mxCell id="FEva6U0gb84JSitO10Zw-107" value="Location&amp;nbsp; &amp;nbsp; &amp;nbsp; &amp;nbsp; &amp;nbsp; &amp;nbsp; varChar(25)" style="text;html=1;align=center;verticalAlign=middle;whiteSpace=wrap;rounded=0;" parent="FEva6U0gb84JSitO10Zw-58" vertex="1">
          <mxGeometry x="40" y="80" width="160" height="30" as="geometry" />
        </mxCell>
        <mxCell id="H97FQpSwFBYFvqKq4Bfr-1" value="InventoryType&lt;span style=&quot;white-space: pre;&quot;&gt;&#x9;&lt;/span&gt;VARCHAR(20)" style="text;html=1;align=center;verticalAlign=middle;whiteSpace=wrap;rounded=0;" parent="FEva6U0gb84JSitO10Zw-58" vertex="1">
          <mxGeometry x="47" y="120" width="150" height="30" as="geometry" />
        </mxCell>
        <mxCell id="pkb78une9kSEhr9FNZn_-3" value="Capacity&lt;span style=&quot;white-space: pre;&quot;&gt;&#x9;&lt;span style=&quot;white-space: pre;&quot;&gt;&#x9;&lt;/span&gt;&lt;/span&gt;INTEGER" style="text;html=1;align=center;verticalAlign=middle;whiteSpace=wrap;rounded=0;" vertex="1" parent="FEva6U0gb84JSitO10Zw-58">
          <mxGeometry x="17" y="140" width="183" height="30" as="geometry" />
        </mxCell>
        <mxCell id="FEva6U0gb84JSitO10Zw-83" value="" style="group" parent="1" vertex="1" connectable="0">
          <mxGeometry x="280" y="-190" width="230" height="230" as="geometry" />
        </mxCell>
        <mxCell id="FEva6U0gb84JSitO10Zw-84" value="" style="whiteSpace=wrap;html=1;aspect=fixed;" parent="FEva6U0gb84JSitO10Zw-83" vertex="1">
          <mxGeometry width="230" height="230" as="geometry" />
        </mxCell>
        <mxCell id="FEva6U0gb84JSitO10Zw-85" value="" style="endArrow=none;html=1;rounded=0;exitX=0.161;exitY=0.998;exitDx=0;exitDy=0;exitPerimeter=0;" parent="FEva6U0gb84JSitO10Zw-83" source="FEva6U0gb84JSitO10Zw-84" edge="1">
          <mxGeometry width="50" height="50" relative="1" as="geometry">
            <mxPoint x="30" y="110" as="sourcePoint" />
            <mxPoint x="37" y="30" as="targetPoint" />
          </mxGeometry>
        </mxCell>
        <mxCell id="FEva6U0gb84JSitO10Zw-86" value="" style="endArrow=none;html=1;rounded=0;exitX=0.005;exitY=0.126;exitDx=0;exitDy=0;exitPerimeter=0;" parent="FEva6U0gb84JSitO10Zw-83" source="FEva6U0gb84JSitO10Zw-84" edge="1">
          <mxGeometry width="50" height="50" relative="1" as="geometry">
            <mxPoint x="100" y="210" as="sourcePoint" />
            <mxPoint x="230" y="30" as="targetPoint" />
          </mxGeometry>
        </mxCell>
        <mxCell id="FEva6U0gb84JSitO10Zw-87" value="" style="endArrow=none;html=1;rounded=0;exitX=0;exitY=0.25;exitDx=0;exitDy=0;entryX=1;entryY=0.25;entryDx=0;entryDy=0;" parent="FEva6U0gb84JSitO10Zw-83" source="FEva6U0gb84JSitO10Zw-84" target="FEva6U0gb84JSitO10Zw-84" edge="1">
          <mxGeometry width="50" height="50" relative="1" as="geometry">
            <mxPoint x="100" y="210" as="sourcePoint" />
            <mxPoint x="150" y="160" as="targetPoint" />
          </mxGeometry>
        </mxCell>
        <mxCell id="FEva6U0gb84JSitO10Zw-88" value="PK" style="text;html=1;align=center;verticalAlign=middle;whiteSpace=wrap;rounded=0;" parent="FEva6U0gb84JSitO10Zw-83" vertex="1">
          <mxGeometry x="4" y="30" width="30" height="30" as="geometry" />
        </mxCell>
        <mxCell id="FEva6U0gb84JSitO10Zw-89" value="Manager" style="text;html=1;align=center;verticalAlign=middle;whiteSpace=wrap;rounded=0;fontStyle=1" parent="FEva6U0gb84JSitO10Zw-83" vertex="1">
          <mxGeometry x="85" width="60" height="30" as="geometry" />
        </mxCell>
        <mxCell id="FEva6U0gb84JSitO10Zw-90" value="ManagerID&amp;nbsp; &amp;nbsp; integar(10)" style="text;html=1;align=center;verticalAlign=middle;whiteSpace=wrap;rounded=0;" parent="FEva6U0gb84JSitO10Zw-83" vertex="1">
          <mxGeometry x="40" y="30" width="150" height="30" as="geometry" />
        </mxCell>
        <mxCell id="FEva6U0gb84JSitO10Zw-91" value="EmployeeID&amp;nbsp; &amp;nbsp; &amp;nbsp;integar(10)" style="text;html=1;align=center;verticalAlign=middle;whiteSpace=wrap;rounded=0;" parent="FEva6U0gb84JSitO10Zw-83" vertex="1">
          <mxGeometry x="40" y="60" width="160" height="30" as="geometry" />
        </mxCell>
        <mxCell id="FEva6U0gb84JSitO10Zw-95" value="FK" style="text;html=1;align=center;verticalAlign=middle;whiteSpace=wrap;rounded=0;" parent="FEva6U0gb84JSitO10Zw-83" vertex="1">
          <mxGeometry x="-11" y="60" width="60" height="30" as="geometry" />
        </mxCell>
        <mxCell id="FEva6U0gb84JSitO10Zw-154" value="" style="edgeStyle=entityRelationEdgeStyle;fontSize=12;html=1;endArrow=ERmandOne;startArrow=ERmandOne;rounded=0;exitX=1;exitY=0.5;exitDx=0;exitDy=0;" parent="1" source="FEva6U0gb84JSitO10Zw-84" target="FEva6U0gb84JSitO10Zw-4" edge="1">
          <mxGeometry width="100" height="100" relative="1" as="geometry">
            <mxPoint x="830" y="-50" as="sourcePoint" />
            <mxPoint x="390" y="-40" as="targetPoint" />
          </mxGeometry>
        </mxCell>
        <mxCell id="FEva6U0gb84JSitO10Zw-155" value="" style="edgeStyle=entityRelationEdgeStyle;fontSize=12;html=1;endArrow=ERzeroToMany;startArrow=ERmandOne;rounded=0;exitX=0.009;exitY=0.645;exitDx=0;exitDy=0;exitPerimeter=0;entryX=1;entryY=0.565;entryDx=0;entryDy=0;entryPerimeter=0;" parent="1" source="FEva6U0gb84JSitO10Zw-4" target="FEva6U0gb84JSitO10Zw-29" edge="1">
          <mxGeometry width="100" height="100" relative="1" as="geometry">
            <mxPoint x="133.67999999999984" y="-239.99999999999997" as="sourcePoint" />
            <mxPoint x="280" y="-129.23" as="targetPoint" />
          </mxGeometry>
        </mxCell>
        <mxCell id="FEva6U0gb84JSitO10Zw-156" value="" style="edgeStyle=entityRelationEdgeStyle;fontSize=12;html=1;endArrow=ERzeroToMany;startArrow=ERmandOne;rounded=0;exitX=1;exitY=0;exitDx=0;exitDy=0;entryX=0;entryY=0.5;entryDx=0;entryDy=0;" parent="1" source="FEva6U0gb84JSitO10Zw-75" target="FEva6U0gb84JSitO10Zw-41" edge="1">
          <mxGeometry width="100" height="100" relative="1" as="geometry">
            <mxPoint x="830" y="-50" as="sourcePoint" />
            <mxPoint x="640" y="-520" as="targetPoint" />
          </mxGeometry>
        </mxCell>
        <mxCell id="FEva6U0gb84JSitO10Zw-160" value="" style="edgeStyle=entityRelationEdgeStyle;fontSize=12;html=1;endArrow=ERzeroToMany;startArrow=ERmandOne;rounded=0;exitX=0.996;exitY=0.176;exitDx=0;exitDy=0;exitPerimeter=0;entryX=0;entryY=0.87;entryDx=0;entryDy=0;entryPerimeter=0;" parent="1" source="FEva6U0gb84JSitO10Zw-4" target="FEva6U0gb84JSitO10Zw-41" edge="1">
          <mxGeometry width="100" height="100" relative="1" as="geometry">
            <mxPoint x="480" y="-170" as="sourcePoint" />
            <mxPoint x="580" y="-270" as="targetPoint" />
            <Array as="points">
              <mxPoint x="370" y="-390" />
            </Array>
          </mxGeometry>
        </mxCell>
        <mxCell id="FEva6U0gb84JSitO10Zw-161" value="" style="edgeStyle=entityRelationEdgeStyle;fontSize=12;html=1;endArrow=ERzeroToMany;startArrow=ERmandOne;rounded=0;entryX=0.983;entryY=0.701;entryDx=0;entryDy=0;entryPerimeter=0;" parent="1" target="FEva6U0gb84JSitO10Zw-17" edge="1">
          <mxGeometry width="100" height="100" relative="1" as="geometry">
            <mxPoint x="860" y="80" as="sourcePoint" />
            <mxPoint x="890" y="-250" as="targetPoint" />
          </mxGeometry>
        </mxCell>
        <mxCell id="FEva6U0gb84JSitO10Zw-164" value="" style="edgeStyle=entityRelationEdgeStyle;fontSize=12;html=1;endArrow=ERzeroToMany;startArrow=ERmandOne;rounded=0;exitX=1;exitY=0.75;exitDx=0;exitDy=0;entryX=0;entryY=0.75;entryDx=0;entryDy=0;" parent="1" source="FEva6U0gb84JSitO10Zw-84" target="FEva6U0gb84JSitO10Zw-17" edge="1">
          <mxGeometry width="100" height="100" relative="1" as="geometry">
            <mxPoint x="640" y="-40" as="sourcePoint" />
            <mxPoint x="740" y="-140" as="targetPoint" />
          </mxGeometry>
        </mxCell>
        <mxCell id="H97FQpSwFBYFvqKq4Bfr-4" value="" style="edgeStyle=entityRelationEdgeStyle;fontSize=12;html=1;endArrow=ERmandOne;startArrow=ERmandOne;rounded=0;entryX=0;entryY=0.609;entryDx=0;entryDy=0;entryPerimeter=0;exitX=1.002;exitY=0.892;exitDx=0;exitDy=0;exitPerimeter=0;" parent="1" source="FEva6U0gb84JSitO10Zw-84" target="FEva6U0gb84JSitO10Zw-59" edge="1">
          <mxGeometry width="100" height="100" relative="1" as="geometry">
            <mxPoint x="580" y="155" as="sourcePoint" />
            <mxPoint x="750" y="90" as="targetPoint" />
          </mxGeometry>
        </mxCell>
        <mxCell id="H97FQpSwFBYFvqKq4Bfr-5" value="" style="group" parent="1" vertex="1" connectable="0">
          <mxGeometry x="30" y="150" width="230" height="230" as="geometry" />
        </mxCell>
        <mxCell id="H97FQpSwFBYFvqKq4Bfr-6" value="" style="whiteSpace=wrap;html=1;aspect=fixed;" parent="H97FQpSwFBYFvqKq4Bfr-5" vertex="1">
          <mxGeometry width="230" height="230" as="geometry" />
        </mxCell>
        <mxCell id="H97FQpSwFBYFvqKq4Bfr-7" value="" style="endArrow=none;html=1;rounded=0;exitX=0.161;exitY=0.998;exitDx=0;exitDy=0;exitPerimeter=0;" parent="H97FQpSwFBYFvqKq4Bfr-5" source="H97FQpSwFBYFvqKq4Bfr-6" edge="1">
          <mxGeometry width="50" height="50" relative="1" as="geometry">
            <mxPoint x="30" y="110" as="sourcePoint" />
            <mxPoint x="37" y="30" as="targetPoint" />
          </mxGeometry>
        </mxCell>
        <mxCell id="H97FQpSwFBYFvqKq4Bfr-8" value="" style="endArrow=none;html=1;rounded=0;exitX=0.005;exitY=0.126;exitDx=0;exitDy=0;exitPerimeter=0;" parent="H97FQpSwFBYFvqKq4Bfr-5" source="H97FQpSwFBYFvqKq4Bfr-6" edge="1">
          <mxGeometry width="50" height="50" relative="1" as="geometry">
            <mxPoint x="100" y="210" as="sourcePoint" />
            <mxPoint x="230" y="30" as="targetPoint" />
          </mxGeometry>
        </mxCell>
        <mxCell id="H97FQpSwFBYFvqKq4Bfr-9" value="" style="endArrow=none;html=1;rounded=0;exitX=0;exitY=0.25;exitDx=0;exitDy=0;entryX=1;entryY=0.25;entryDx=0;entryDy=0;" parent="H97FQpSwFBYFvqKq4Bfr-5" source="H97FQpSwFBYFvqKq4Bfr-6" target="H97FQpSwFBYFvqKq4Bfr-6" edge="1">
          <mxGeometry width="50" height="50" relative="1" as="geometry">
            <mxPoint x="100" y="210" as="sourcePoint" />
            <mxPoint x="150" y="160" as="targetPoint" />
          </mxGeometry>
        </mxCell>
        <mxCell id="H97FQpSwFBYFvqKq4Bfr-10" value="PK" style="text;html=1;align=center;verticalAlign=middle;whiteSpace=wrap;rounded=0;" parent="H97FQpSwFBYFvqKq4Bfr-5" vertex="1">
          <mxGeometry x="4" y="30" width="30" height="30" as="geometry" />
        </mxCell>
        <mxCell id="H97FQpSwFBYFvqKq4Bfr-11" value="Store Stock" style="text;html=1;align=center;verticalAlign=middle;whiteSpace=wrap;rounded=0;fontStyle=1" parent="H97FQpSwFBYFvqKq4Bfr-5" vertex="1">
          <mxGeometry x="71.5" width="85" height="30" as="geometry" />
        </mxCell>
        <mxCell id="H97FQpSwFBYFvqKq4Bfr-12" value="ProductID&amp;nbsp; &amp;nbsp; integar(10)" style="text;html=1;align=center;verticalAlign=middle;whiteSpace=wrap;rounded=0;" parent="H97FQpSwFBYFvqKq4Bfr-5" vertex="1">
          <mxGeometry x="40" y="30" width="150" height="30" as="geometry" />
        </mxCell>
        <mxCell id="H97FQpSwFBYFvqKq4Bfr-13" value="ProductName&amp;nbsp; &amp;nbsp; &amp;nbsp; &amp;nbsp;varChar(25)" style="text;html=1;align=center;verticalAlign=middle;whiteSpace=wrap;rounded=0;" parent="H97FQpSwFBYFvqKq4Bfr-5" vertex="1">
          <mxGeometry x="40" y="60" width="170" height="30" as="geometry" />
        </mxCell>
        <mxCell id="H97FQpSwFBYFvqKq4Bfr-18" value="ProductType&amp;nbsp; &amp;nbsp; &amp;nbsp; &amp;nbsp;varChar(25)" style="text;html=1;align=center;verticalAlign=middle;whiteSpace=wrap;rounded=0;" parent="H97FQpSwFBYFvqKq4Bfr-5" vertex="1">
          <mxGeometry x="40" y="90" width="170" height="30" as="geometry" />
        </mxCell>
        <mxCell id="H97FQpSwFBYFvqKq4Bfr-19" value="ProductQuantity&amp;nbsp; &amp;nbsp; &amp;nbsp; &amp;nbsp;integer(7)" style="text;html=1;align=center;verticalAlign=middle;whiteSpace=wrap;rounded=0;" parent="H97FQpSwFBYFvqKq4Bfr-5" vertex="1">
          <mxGeometry x="40" y="120" width="180" height="30" as="geometry" />
        </mxCell>
        <mxCell id="H97FQpSwFBYFvqKq4Bfr-20" value="ReorderLevel&amp;nbsp; &amp;nbsp; &amp;nbsp; &amp;nbsp;integer(7)" style="text;html=1;align=center;verticalAlign=middle;whiteSpace=wrap;rounded=0;" parent="H97FQpSwFBYFvqKq4Bfr-5" vertex="1">
          <mxGeometry x="40" y="150" width="170" height="30" as="geometry" />
        </mxCell>
        <mxCell id="H97FQpSwFBYFvqKq4Bfr-21" value="LastUpdate&amp;nbsp; &amp;nbsp; &amp;nbsp; &amp;nbsp;DATE" style="text;html=1;align=center;verticalAlign=middle;whiteSpace=wrap;rounded=0;" parent="H97FQpSwFBYFvqKq4Bfr-5" vertex="1">
          <mxGeometry x="20" y="180" width="170" height="30" as="geometry" />
        </mxCell>
        <mxCell id="H97FQpSwFBYFvqKq4Bfr-22" value="" style="edgeStyle=entityRelationEdgeStyle;fontSize=12;html=1;endArrow=ERoneToMany;startArrow=ERoneToMany;rounded=0;entryX=0;entryY=0.75;entryDx=0;entryDy=0;exitX=0.993;exitY=0.459;exitDx=0;exitDy=0;exitPerimeter=0;" parent="1" source="H97FQpSwFBYFvqKq4Bfr-6" target="FEva6U0gb84JSitO10Zw-84" edge="1">
          <mxGeometry width="100" height="100" relative="1" as="geometry">
            <mxPoint x="470" y="230" as="sourcePoint" />
            <mxPoint x="570" y="130" as="targetPoint" />
          </mxGeometry>
        </mxCell>
        <mxCell id="pkb78une9kSEhr9FNZn_-6" value="" style="edgeStyle=entityRelationEdgeStyle;fontSize=12;html=1;endArrow=ERmandOne;startArrow=ERmandOne;rounded=0;exitX=1;exitY=0.087;exitDx=0;exitDy=0;exitPerimeter=0;" edge="1" parent="1" source="FEva6U0gb84JSitO10Zw-53">
          <mxGeometry width="100" height="100" relative="1" as="geometry">
            <mxPoint x="-20" y="500" as="sourcePoint" />
            <mxPoint x="30" y="320" as="targetPoint" />
          </mxGeometry>
        </mxCell>
        <mxCell id="pkb78une9kSEhr9FNZn_-7" value="" style="edgeStyle=entityRelationEdgeStyle;fontSize=12;html=1;endArrow=ERmandOne;startArrow=ERmandOne;rounded=0;exitX=1;exitY=0.217;exitDx=0;exitDy=0;exitPerimeter=0;" edge="1" parent="1" source="FEva6U0gb84JSitO10Zw-35">
          <mxGeometry width="100" height="100" relative="1" as="geometry">
            <mxPoint x="-70" y="450" as="sourcePoint" />
            <mxPoint x="30" y="350" as="targetPoint" />
          </mxGeometry>
        </mxCell>
        <mxCell id="pkb78une9kSEhr9FNZn_-8" value="" style="edgeStyle=entityRelationEdgeStyle;fontSize=12;html=1;endArrow=ERmandOne;startArrow=ERmandOne;rounded=0;entryX=0.005;entryY=0.328;entryDx=0;entryDy=0;entryPerimeter=0;exitX=0.991;exitY=0.853;exitDx=0;exitDy=0;exitPerimeter=0;" edge="1" parent="1" source="H97FQpSwFBYFvqKq4Bfr-6" target="FEva6U0gb84JSitO10Zw-47">
          <mxGeometry width="100" height="100" relative="1" as="geometry">
            <mxPoint x="295" y="350" as="sourcePoint" />
            <mxPoint x="395" y="250" as="targetPoint" />
          </mxGeometry>
        </mxCell>
      </root>
    </mxGraphModel>
  </diagram>
</mxfile>
